# xmcd
#
# Track frame offsets:
#  150
#  11823
#  22962
#  33862
#  45694
#  57156
#  68929
#  79466
#  89907
#  100509
#  110184
#  121587
#  133676
#  144268
#  154235
#  166925
#  178673
#  189943
#  202038
#  212254
#  220644
#  231305
#  241840
#  252093
#  263555
#  273810
#  284576
#  295922
#  306057
#  316688
#  328771
#  339908
#
# Disc length: 4686 seconds
#
# Revision: 0
# Processed by: cddbd v1.5.2PL0 Copyright (c) Steve Scherf et al.
# Submitted via: AltoMP3_Maker 3.0
#
DISCID=c5124c20
DTITLE=Various Artist - Coral Hillbilly, Vol. 1
DYEAR=1900
DGENRE=
TTITLE0=Doug Bragg - Texas Special
TTITLE1=Bill Cason - City Slicker
TTITLE2=Red Smith - Whoa Boy
TTITLE3=Tommy Sosebee - Barbershop Boogie
TTITLE4=Kenny Roberts - F.O.B. Tennessee
TTITLE5=Blackie Crawford - Jump Jack Jump
TTITLE6=Slim Williams - Lovin' Overtime
TTITLE7=Lloyd Weaver - One Wheel Draggin'
TTITLE8=Marty Roberts - A Gambler's Love
TTITLE9=Johnny Rector - If They Ever Get Together
TTITLE10=Jim Atkins - Juke Joint Johnny
TTITLE11=Rusty Keefer - I'm Just Here to Get My Baby out of Jail
TTITLE12=Texas Bill Strength - Paper Boy Boogie
TTITLE13=Marvin Rainwater - I Gotta Go Get My Baby
TTITLE14=Chuck Murphy - My Bucket's Been Fixed
TTITLE15=Kenny Roberts - Hush Puppies
TTITLE16=Blackie Crawford - Baby Buggy Blues
TTITLE17=Joe Martin - Milk Cow Blues
TTITLE18=Tommy Duncan - San Antonio Rose
TTITLE19=Doug Bragg - Barbed Wire Love
TTITLE20=Marty Roberts - A Brand New Love Affair
TTITLE21=Dewey Ritter - When My Day Rolls Around
TTITLE22=Leon Merritt - Wishin' I Was Kissin' You
TTITLE23=Slim Williams - Yoke of Oxen
TTITLE24=Al Bunyon - Bomita Chiquita Senorita
TTITLE25=Johnny Rector - Have You Ever Been Kissed
TTITLE26=Kenny Roberts and Tommy Sosebee - The Sissy Song
TTITLE27=Tabby West and TX Bill Strength - Let's Make Love or Go Home
TTITLE28=Tabby West - Inchin' Up
TTITLE29=Milt Dickey - Checkbook Baby
TTITLE30=Tommy Sosebee - All Night Boogie
TTITLE31=Danny Brown - Love 'Em and Leave 'Em Blues
EXTD=
EXTT0=
EXTT1=
EXTT2=
EXTT3=
EXTT4=
EXTT5=
EXTT6=
EXTT7=
EXTT8=
EXTT9=
EXTT10=
EXTT11=
EXTT12=
EXTT13=
EXTT14=
EXTT15=
EXTT16=
EXTT17=
EXTT18=
EXTT19=
EXTT20=
EXTT21=
EXTT22=
EXTT23=
EXTT24=
EXTT25=
EXTT26=
EXTT27=
EXTT28=
EXTT29=
EXTT30=
EXTT31=
PLAYORDER=
